<svg width="138" height="138" viewBox="0 0 138 138" fill="none" xmlns="http://www.w3.org/2000/svg">
<rect x="93.8467" y="93.4351" width="33.7648" height="33.9865" rx="16.8824" fill="#F0EDE9"/>
<path d="M110.782 116.111C110.001 116.111 109.311 115.954 108.713 115.639C108.114 115.32 107.645 114.878 107.305 114.315C106.965 113.752 106.795 113.103 106.795 112.367H108.18C108.18 113.169 108.406 113.793 108.857 114.239C109.309 114.686 109.94 114.909 110.752 114.909C111.528 114.909 112.157 114.714 112.639 114.323C113.126 113.927 113.37 113.397 113.37 112.733C113.37 112.129 113.111 111.644 112.593 111.279C112.076 110.909 111.401 110.724 110.569 110.724H109.656V109.506H110.569C111.3 109.506 111.891 109.339 112.342 109.004C112.794 108.664 113.02 108.218 113.02 107.665C113.02 107.026 112.806 106.523 112.38 106.158C111.959 105.793 111.396 105.61 110.691 105.61C109.971 105.61 109.403 105.813 108.987 106.219C108.571 106.62 108.363 107.178 108.363 107.893H107.039C107.039 107.208 107.193 106.605 107.503 106.082C107.817 105.555 108.249 105.144 108.796 104.849C109.349 104.555 109.983 104.408 110.699 104.408C111.394 104.408 112.018 104.545 112.571 104.819C113.124 105.093 113.56 105.468 113.879 105.945C114.199 106.422 114.359 106.97 114.359 107.589C114.359 108.162 114.176 108.672 113.811 109.118C113.451 109.56 112.954 109.877 112.319 110.069V110.092C113.045 110.214 113.623 110.518 114.054 111.005C114.491 111.487 114.709 112.063 114.709 112.733C114.709 113.392 114.536 113.978 114.191 114.49C113.851 114.998 113.385 115.396 112.791 115.685C112.203 115.969 111.533 116.111 110.782 116.111Z" fill="#4D4D4D"/>
<circle cx="110.728" cy="110.539" r="42.5307" stroke="#F0EDE9" stroke-width="0.649324"/>
<circle cx="110.728" cy="110.539" r="58.1145" stroke="#F0EDE9" stroke-width="0.649324"/>
<circle cx="110.729" cy="110.539" r="110.06" stroke="#F0EDE9" stroke-width="0.649324"/>
</svg>
