<svg width="546" height="272" viewBox="0 0 546 272" fill="none" xmlns="http://www.w3.org/2000/svg">
<g clip-path="url(#clip0_113_350)" filter="url(#filter0_i_113_350)">
<rect width="546" height="272" fill="white"/>
<circle cx="211" cy="130" r="2" fill="#D8D1C7"/>
<circle opacity="0.99" cx="28.5454" cy="40.8417" r="1.7" transform="rotate(5 28.5454 40.8417)" fill="#D8D1C7"/>
<path opacity="0.7" d="M148.597 15.8183C150.874 13.7348 154.411 13.8652 156.555 16.1085C154.458 13.8039 154.584 10.2484 156.847 8.12519L156.847 8.12509C154.571 10.2343 151.015 10.1116 148.862 7.85884C150.951 10.1544 150.834 13.6917 148.597 15.8179L148.597 15.8183Z" fill="#D8D1C7"/>
<circle opacity="0.97" cx="191.297" cy="6.34284" r="1.32" transform="rotate(1 191.297 6.34284)" fill="#D8D1C7"/>
<path opacity="0.97" d="M300.888 12.7157C301.503 16.4078 299.034 19.9185 295.336 20.6178C299.065 20.0076 302.598 22.4841 303.263 26.1879L303.263 26.1878C302.622 22.4796 305.095 18.9438 308.808 18.2423C305.094 18.8506 301.573 16.3957 300.888 12.7156L300.888 12.7157Z" fill="#D8D1C7"/>
<path opacity="0.83" d="M464.324 48.7964C462.403 45.3945 463.57 41.0695 466.948 39.0633C463.509 40.993 459.159 39.8253 457.184 36.4297L457.184 36.4298C459.137 39.838 457.973 44.1895 454.581 46.2033C458.008 44.2803 462.338 45.4314 464.324 48.7968L464.324 48.7964Z" fill="#D8D1C7"/>
<path opacity="0.93" d="M479.43 40.9109L481.867 39.0795L480.116 36.5848L482.92 37.7794L484.205 35.0152L484.572 38.0411L487.609 37.7716L485.172 39.603L486.923 42.0977L484.119 40.9032L482.834 43.6673L482.467 40.6414L479.43 40.9109Z" fill="#D8D1C7"/>
<path opacity="0.78" d="M29.1858 54.4399C27.6376 53.0682 27.4767 50.702 28.8218 49.1155C27.4326 50.6744 25.0538 50.8396 23.4801 49.4802L23.4801 49.4803C25.0454 50.8496 25.2127 53.2285 23.862 54.8211C25.2457 53.268 27.6116 53.0978 29.1856 54.4402L29.1858 54.4399Z" fill="#D8D1C7"/>
<path opacity="0.83" d="M162.716 60.4577L161.144 62.8721L163.506 64.5217L160.629 64.3673L160.382 67.2378L159.077 64.669L156.467 65.8899L158.039 63.4756L155.677 61.826L158.554 61.9804L158.802 59.1099L160.106 61.6786L162.716 60.4577Z" fill="#D8D1C7"/>
<path opacity="0.88" d="M193.257 73.9783C190.415 75.0954 187.195 73.7212 186.01 70.8889C187.129 73.7608 185.752 77.0003 182.91 78.1591L182.91 78.1592C185.76 77.018 189.001 78.3923 190.19 81.2362C189.075 78.3753 190.437 75.1494 193.257 73.9788L193.257 73.9783Z" fill="#D8D1C7"/>
<path opacity="0.88" d="M333.058 44.4982L332.482 40.3626L328.33 40.8042L331.624 38.2376L329.165 34.8626L333.035 36.4317L334.728 32.615L335.304 36.7506L339.457 36.309L336.163 38.8756L338.621 42.2506L334.752 40.6815L333.058 44.4982Z" fill="#D8D1C7"/>
<circle opacity="0.7" cx="429.343" cy="71.9679" r="1.92" transform="rotate(59 429.343 71.9679)" fill="#D8D1C7"/>
<path opacity="0.78" d="M511.146 67.4191L508.727 66.7676L507.997 69.1644L507.352 66.7436L504.911 67.3102L506.685 65.5409L504.974 63.7108L507.393 64.3622L508.123 61.9655L508.768 64.3862L511.209 63.8196L509.435 65.5889L511.146 67.4191Z" fill="#D8D1C7"/>
<path opacity="0.76" d="M70.4813 91.7836L75.1795 90.7911L74.3398 86.0632L77.5484 89.6357L81.2229 86.5445L79.7333 91.1095L84.2477 92.7462L79.5495 93.7387L80.3893 98.4666L77.1807 94.894L73.5061 97.9852L74.9957 93.4202L70.4813 91.7836Z" fill="#D8D1C7"/>
<path opacity="0.89" d="M189.649 94.5665C186.304 96.4558 182.052 95.3075 180.079 91.9865C181.976 95.3684 180.828 99.6453 177.49 101.587L177.49 101.587C180.841 99.6661 185.119 100.811 187.099 104.145C185.208 100.777 186.34 96.5192 189.649 94.5671L189.649 94.5665Z" fill="#D8D1C7"/>
<path opacity="0.84" d="M281.9 125.915L277.605 124.173L275.725 128.41L275.085 123.819L270.476 124.309L274.132 121.461L271.403 117.714L275.699 119.456L277.578 115.219L278.218 119.81L282.827 119.32L279.171 122.169L281.9 125.915Z" fill="#D8D1C7"/>
<path opacity="0.78" d="M408.356 96.0022L408.485 99.8415L412.327 99.8367L409.066 101.868L410.991 105.193L407.602 103.385L405.685 106.714L405.556 102.875L401.714 102.88L404.975 100.848L403.05 97.5237L406.439 99.3314L408.356 96.0022Z" fill="#D8D1C7"/>
<path opacity="0.87" d="M537.169 102.246C538.052 104.189 537.211 106.486 535.277 107.417C537.241 106.531 539.552 107.373 540.465 109.315L540.465 109.315C539.564 107.368 540.405 105.055 542.346 104.121C540.39 105.004 538.089 104.172 537.169 102.246L537.169 102.246Z" fill="#D8D1C7"/>
<path opacity="0.75" d="M52.0962 154.251C49.3519 155.801 45.8628 154.859 44.2443 152.134C45.8011 154.909 44.8591 158.418 42.1198 160.011L42.1198 160.011C44.8693 158.435 48.3798 159.375 50.0043 162.111C48.4531 159.347 49.3816 155.853 52.0965 154.252L52.0962 154.251Z" fill="#D8D1C7"/>
<path opacity="0.96" d="M158.448 143.723L153.652 143.968L153.742 148.769L151.132 144.739L147.019 147.217L149.204 142.942L145.002 140.619L149.797 140.374L149.707 135.572L152.318 139.603L156.43 137.125L154.245 141.4L158.448 143.723Z" fill="#D8D1C7"/>
<path opacity="0.88" d="M224.852 125.557C225.786 129.181 223.633 132.894 220.01 133.912C223.672 132.98 227.407 135.139 228.392 138.77L228.393 138.77C227.43 135.132 229.586 131.394 233.224 130.372C229.577 131.302 225.855 129.163 224.852 125.556L224.852 125.557Z" fill="#D8D1C7"/>
<circle opacity="0.71" cx="322.903" cy="140.225" r="1.84" transform="rotate(-88 322.903 140.225)" fill="#D8D1C7"/>
<circle opacity="0.81" cx="443.56" cy="156.838" r="2.16" transform="rotate(98 443.56 156.838)" fill="#D8D1C7"/>
<circle opacity="0.73" cx="539.348" cy="150.072" r="2.38" transform="rotate(97 539.348 150.072)" fill="#D8D1C7"/>
<circle opacity="0.7" cx="-0.356195" cy="198.501" r="1.32" transform="rotate(-146 -0.356195 198.501)" fill="#D8D1C7"/>
<path opacity="0.99" d="M145.048 182.146L147.477 180.04L145.45 177.544L148.489 178.594L149.637 175.591L150.247 178.748L153.422 178.241L150.993 180.347L153.019 182.844L149.98 181.793L148.832 184.796L148.222 181.639L145.048 182.146Z" fill="#D8D1C7"/>
<path opacity="0.84" d="M182.824 190.618L185.755 188.93L184.164 185.946L187.091 187.641L188.879 184.77L188.875 188.152L192.256 188.266L189.324 189.954L190.916 192.938L187.989 191.243L186.2 194.114L186.205 190.731L182.824 190.618Z" fill="#D8D1C7"/>
<circle opacity="0.96" cx="295.988" cy="218.139" r="1.64" transform="rotate(-76 295.988 218.139)" fill="#D8D1C7"/>
<path opacity="0.91" d="M395.138 233.393C398.408 232.301 401.957 234.041 403.126 237.304C402.034 234 403.778 230.429 407.051 229.291L407.051 229.29C403.77 230.409 400.197 228.668 399.024 225.391C400.113 228.682 398.387 232.239 395.138 233.392L395.138 233.393Z" fill="#D8D1C7"/>
<path opacity="0.83" d="M514.85 175.859C511.222 175.507 508.543 172.301 508.817 168.646C508.451 172.307 505.232 175.006 501.581 174.698L501.58 174.698C505.23 175.029 507.932 178.247 507.656 181.916C508.02 178.269 511.216 175.576 514.85 175.859L514.85 175.859Z" fill="#D8D1C7"/>
<circle opacity="0.82" cx="41.4921" cy="262.246" r="1.82" transform="rotate(122 41.4921 262.246)" fill="#D8D1C7"/>
<path opacity="0.94" d="M129.769 266.726C127.101 265.619 125.812 262.567 126.867 259.86C125.741 262.551 122.675 263.851 119.978 262.771L119.978 262.771C122.668 263.868 123.971 266.933 122.911 269.651C124.033 266.97 127.08 265.67 129.769 266.727L129.769 266.726Z" fill="#D8D1C7"/>
<circle opacity="0.94" cx="255.418" cy="231.709" r="2.2" transform="rotate(-84 255.418 231.709)" fill="#D8D1C7"/>
<path opacity="0.8" d="M354.627 230.438L353.276 227.659L350.455 228.919L352.186 226.36L349.684 224.547L352.766 224.766L353.085 221.693L354.436 224.472L357.258 223.211L355.527 225.771L358.029 227.584L354.947 227.364L354.627 230.438Z" fill="#D8D1C7"/>
<path opacity="0.83" d="M371.573 251.504C372.55 248.75 375.564 247.287 378.354 248.209C375.577 247.214 374.102 244.186 375.05 241.405L375.049 241.405C374.084 244.18 371.057 245.658 368.256 244.732C371.023 245.723 372.497 248.731 371.572 251.503L371.573 251.504Z" fill="#D8D1C7"/>
<path opacity="0.99" d="M463.24 241.86L458.95 242.534L459.484 246.844L456.756 243.465L453.291 246.083L454.852 242.031L450.853 240.339L455.143 239.665L454.608 235.356L457.337 238.734L460.801 236.116L459.24 240.168L463.24 241.86Z" fill="#D8D1C7"/>
</g>
<defs>
<filter id="filter0_i_113_350" x="0" y="0" width="546" height="272" filterUnits="userSpaceOnUse" color-interpolation-filters="sRGB">
<feFlood flood-opacity="0" result="BackgroundImageFix"/>
<feBlend mode="normal" in="SourceGraphic" in2="BackgroundImageFix" result="shape"/>
<feColorMatrix in="SourceAlpha" type="matrix" values="0 0 0 0 0 0 0 0 0 0 0 0 0 0 0 0 0 0 127 0" result="hardAlpha"/>
<feMorphology radius="10" operator="erode" in="SourceAlpha" result="effect1_innerShadow_113_350"/>
<feOffset/>
<feGaussianBlur stdDeviation="27.55"/>
<feComposite in2="hardAlpha" operator="arithmetic" k2="-1" k3="1"/>
<feColorMatrix type="matrix" values="0 0 0 0 0.941176 0 0 0 0 0.929412 0 0 0 0 0.913725 0 0 0 1 0"/>
<feBlend mode="normal" in2="shape" result="effect1_innerShadow_113_350"/>
</filter>
<clipPath id="clip0_113_350">
<rect width="546" height="272" fill="white"/>
</clipPath>
</defs>
</svg>
