<svg width="1381" height="1183" viewBox="0 0 1381 1183" fill="none" xmlns="http://www.w3.org/2000/svg">
<circle cx="1122.56" cy="87.0605" r="4" transform="rotate(-8.63695 1122.56 87.0605)" fill="#1E1E2C"/>
<circle cx="1133.11" cy="96.5843" r="5" transform="rotate(-8.63695 1133.11 96.5843)" fill="#1E1E2C"/>
<circle cx="1143.96" cy="108.085" r="6" transform="rotate(-8.63695 1143.96 108.085)" fill="#1E1E2C"/>
<circle cx="1155.11" cy="121.563" r="7" transform="rotate(-8.63695 1155.11 121.563)" fill="#1E1E2C"/>
<circle cx="30.2403" cy="573.634" r="4" transform="rotate(-144.327 30.2403 573.634)" fill="#1E1E2C"/>
<circle cx="29.3437" cy="559.449" r="5" transform="rotate(-144.327 29.3437 559.449)" fill="#1E1E2C"/>
<circle cx="29.6136" cy="543.64" r="6" transform="rotate(-144.327 29.6136 543.64)" fill="#1E1E2C"/>
<circle cx="31.0498" cy="526.206" r="7" transform="rotate(-144.327 31.0498 526.206)" fill="#1E1E2C"/>
<circle cx="1346.85" cy="388.564" r="4" transform="rotate(20.535 1346.85 388.564)" fill="#1E1E2C"/>
<circle cx="1351.42" cy="402.022" r="5" transform="rotate(20.535 1351.42 402.022)" fill="#1E1E2C"/>
<circle cx="1355.28" cy="417.353" r="6" transform="rotate(20.535 1355.28 417.353)" fill="#1E1E2C"/>
<circle cx="1358.45" cy="434.557" r="7" transform="rotate(20.535 1358.45 434.557)" fill="#1E1E2C"/>
<path d="M682 1131L686.966 1148.4L704.517 1144L691.931 1157L704.517 1170L686.966 1165.6L682 1183L677.034 1165.6L659.483 1170L672.069 1157L659.483 1144L677.034 1148.4L682 1131Z" fill="#1E1E2C"/>
<path d="M832.674 7.78872L841.299 18.7126L852.497 10.4458L847.349 23.3774L860.107 28.9414L846.334 30.949L847.894 44.7798L839.269 33.8558L828.072 42.1226L833.22 29.1911L820.462 23.6271L834.234 21.6195L832.674 7.78872Z" fill="#1E1E2C"/>
<path d="M433.895 273.815C438.142 264.927 448.762 261.085 457.789 265.16C448.831 260.847 444.952 250.175 449.109 241.187L449.109 241.187C444.895 250.15 434.225 254.038 425.162 249.946C434.088 254.241 437.972 264.847 433.894 273.814L433.895 273.815Z" fill="#1E1E2C"/>
<path d="M830.58 421.064C828.941 414.705 832.718 408.192 839.074 406.405C832.651 408.041 826.097 404.253 824.368 397.882L824.368 397.882C826.057 404.264 822.274 410.822 815.892 412.616C822.291 410.985 828.82 414.737 830.579 421.064L830.58 421.064Z" fill="#1E1E2C"/>
<path d="M379.215 704.182C375.935 691.465 383.49 678.438 396.202 674.863C383.355 678.136 370.247 670.56 366.79 657.817L366.79 657.817C370.168 670.583 362.602 683.699 349.838 687.286C362.636 684.024 375.693 691.528 379.212 704.182L379.215 704.182Z" fill="#1E1E2C"/>
<path d="M964.73 1025.27C964.049 1016.54 970.517 1008.87 979.277 1007.99C970.464 1008.65 962.735 1002.16 961.94 993.394L961.94 993.394C962.68 1002.17 956.195 1009.9 947.399 1010.78C956.179 1010.12 963.883 1016.56 964.728 1025.27L964.73 1025.27Z" fill="#1E1E2C"/>
</svg>
