<svg width="748" height="534" viewBox="0 0 748 534" fill="none" xmlns="http://www.w3.org/2000/svg">
<path d="M619.003 534C619.127 520.868 629.795 510.24 643 510.077C629.744 509.914 619.043 499.203 619.002 486H619.001C618.96 499.205 608.258 509.916 595 510.077C608.206 510.238 618.877 520.866 619.001 534H619.003Z" fill="#1E1E2C"/>
<path d="M127.142 14.142L139.307 20.9052L146.461 8.96566L146.686 22.8824L160.603 23.1078L148.663 30.2614L155.426 42.4263L143.261 35.6632L136.108 47.6027L135.882 33.686L121.966 33.4606L133.905 26.307L127.142 14.142Z" fill="#1E1E2C"/>
<circle cx="18.4255" cy="107.328" r="4" transform="rotate(-115 18.4255 107.328)" fill="#1E1E2C"/>
<circle cx="24.5913" cy="94.5224" r="5" transform="rotate(-115 24.5913 94.5224)" fill="#1E1E2C"/>
<circle cx="32.5696" cy="80.8717" r="6" transform="rotate(-115 32.5696 80.8717)" fill="#1E1E2C"/>
<circle cx="42.3609" cy="66.3753" r="7" transform="rotate(-115 42.3609 66.3753)" fill="#1E1E2C"/>
<circle cx="725.805" cy="415.538" r="4" transform="rotate(58 725.805 415.538)" fill="#1E1E2C"/>
<circle cx="721.246" cy="428.999" r="5" transform="rotate(58 721.246 428.999)" fill="#1E1E2C"/>
<circle cx="714.991" cy="443.521" r="6" transform="rotate(58 714.991 443.521)" fill="#1E1E2C"/>
<circle cx="707.039" cy="459.102" r="7" transform="rotate(58 707.039 459.102)" fill="#1E1E2C"/>
</svg>
