<svg width="500" height="427" viewBox="0 0 500 427" fill="none" xmlns="http://www.w3.org/2000/svg">
<path d="M485.003 40C485.106 29.0562 493.996 20.2001 505 20.0643C493.953 19.928 485.036 11.0029 485.002 0H485.001C484.967 11.0039 476.048 19.9296 465 20.0643C476.005 20.1985 484.897 29.0553 485 40H485.003Z" fill="#1E1E2C"/>
<path d="M44.1444 227.14C36.4788 219.329 36.5031 206.78 44.1881 198.903C36.2803 206.618 23.664 206.612 15.8595 198.856L15.8592 198.857C23.6159 206.662 23.6209 219.28 15.9038 227.187C23.7806 219.5 36.331 219.475 44.1429 227.142L44.1444 227.14Z" fill="#1E1E2C"/>
<path d="M475.1 397.101L483.616 401.835L488.623 393.477L488.781 403.219L498.523 403.377L490.165 408.384L494.899 416.899L486.384 412.165L481.376 420.523L481.219 410.781L471.477 410.623L479.835 405.616L475.1 397.101Z" fill="#1E1E2C"/>
<circle cx="603.355" cy="252.657" r="4" transform="rotate(45 603.355 252.657)" fill="#1E1E2C"/>
<circle cx="601.941" cy="266.799" r="5" transform="rotate(45 601.941 266.799)" fill="#1E1E2C"/>
<circle cx="599.113" cy="282.355" r="6" transform="rotate(45 599.113 282.355)" fill="#1E1E2C"/>
<circle cx="594.87" cy="299.326" r="7" transform="rotate(45 594.87 299.326)" fill="#1E1E2C"/>
<circle cx="35.0487" cy="391.443" r="4" transform="rotate(-174.545 35.0487 391.443)" fill="#1E1E2C"/>
<circle cx="27.1351" cy="379.638" r="5" transform="rotate(-174.545 27.1351 379.638)" fill="#1E1E2C"/>
<circle cx="19.4116" cy="365.841" r="6" transform="rotate(-174.545 19.4116 365.841)" fill="#1E1E2C"/>
<circle cx="11.8781" cy="350.053" r="7" transform="rotate(-174.545 11.8781 350.053)" fill="#1E1E2C"/>
</svg>
