<svg width="200" height="314" viewBox="0 0 200 314" fill="none" xmlns="http://www.w3.org/2000/svg">
<circle cx="70" cy="70" r="70" transform="matrix(-1 0 0 1 61 87)" fill="#F0EDE9"/>
<circle cx="90" cy="90" r="89.5" transform="matrix(-1 0 0 1 81 67)" stroke="#F0EDE9"/>
<circle cx="110" cy="110" r="109.5" transform="matrix(-1 0 0 1 101 47)" stroke="#F0EDE9"/>
<circle cx="150" cy="150" r="149.5" transform="matrix(-1 0 0 1 141 7)" stroke="#F0EDE9"/>
<circle cx="9" cy="9" r="9" transform="matrix(-1 0 0 1 105 117)" fill="#F0EDE9"/>
<circle cx="4" cy="4" r="4" transform="matrix(0.957253 -0.289251 -0.289251 -0.957253 163.15 232.987)" fill="#EAE6E1"/>
<circle cx="5" cy="5" r="5" transform="matrix(0.957253 -0.289251 -0.289251 -0.957253 167.916 221.101)" fill="#EAE6E1"/>
<circle cx="6" cy="6" r="6" transform="matrix(0.957253 -0.289251 -0.289251 -0.957253 172.103 207.3)" fill="#EAE6E1"/>
<circle cx="7" cy="7" r="7" transform="matrix(0.957253 -0.289251 -0.289251 -0.957253 175.711 191.584)" fill="#EAE6E1"/>
<path d="M59.2967 76.775C57.9113 72.6223 53.4381 70.3451 49.2331 71.6469C53.421 70.2362 55.7171 65.7423 54.3768 61.5502L54.3769 61.5501C55.7435 65.7342 60.236 68.0344 64.4578 66.7267C60.2855 68.1315 57.9904 72.5963 59.2975 76.7747L59.2967 76.775Z" fill="#EAE6E1"/>
<path d="M9.0343 312.376C9.79014 308.064 6.9377 303.934 2.61946 303.08C6.97443 303.83 11.1312 300.968 11.9453 296.643L11.9455 296.643C11.1582 300.974 14.0167 305.134 18.3525 305.99C14.014 305.242 9.87207 308.079 9.03513 312.376L9.0343 312.376Z" fill="#EAE6E1"/>
<path d="M5.76705 11.9134C8.40285 9.95575 8.98049 6.23567 7.07011 3.54312C9.05408 6.19806 12.7933 6.78436 15.4677 4.84955L15.4677 4.84966C12.8052 6.80127 12.2157 10.5404 14.1342 13.2436C12.1581 10.5984 8.43983 10.0061 5.76742 11.9139L5.76705 11.9134Z" fill="#EAE6E1"/>
</svg>
