<svg width="1000" height="367" viewBox="0 0 1000 367" fill="none" xmlns="http://www.w3.org/2000/svg">
<path d="M40 169L40.7424 195.887C40.9289 202.641 46.3595 208.071 53.1126 208.258L80 209L53.1126 209.742C46.3595 209.929 40.9289 215.359 40.7424 222.113L40 249L39.2576 222.113C39.0711 215.359 33.6405 209.929 26.8874 209.742L-2.85003e-05 209L26.8874 208.258C33.6405 208.071 39.0711 202.641 39.2576 195.887L40 169Z" fill="#1E1E2C"/>
<path d="M960 0L960.742 26.8874C960.929 33.6405 966.359 39.0711 973.113 39.2576L1000 40L973.113 40.7424C966.359 40.9289 960.929 46.3595 960.742 53.1126L960 80L959.258 53.1126C959.071 46.3595 953.641 40.9289 946.887 40.7424L920 40L946.887 39.2576C953.641 39.0711 959.071 33.6405 959.258 26.8874L960 0Z" fill="#1E1E2C"/>
<path d="M940 327L940.371 340.444C940.464 343.82 943.18 346.536 946.556 346.629L960 347L946.556 347.371C943.18 347.464 940.464 350.18 940.371 353.556L940 367L939.629 353.556C939.536 350.18 936.82 347.464 933.444 347.371L920 347L933.444 346.629C936.82 346.536 939.536 343.82 939.629 340.444L940 327Z" fill="#1E1E2C"/>
</svg>
