<svg width="167" height="314" viewBox="0 0 167 314" fill="none" xmlns="http://www.w3.org/2000/svg">
<circle cx="168" cy="157" r="70" fill="#F0EDE9"/>
<circle cx="168" cy="157" r="89.5" stroke="#F0EDE9"/>
<circle cx="168" cy="157" r="109.5" stroke="#F0EDE9"/>
<circle cx="168" cy="157" r="149.5" stroke="#F0EDE9"/>
<circle cx="18.0002" cy="169" r="12" fill="#F0EDE9"/>
<circle cx="38.8202" cy="292.841" r="4" transform="rotate(175 38.8202 292.841)" fill="#EAE6E1"/>
<circle cx="28.8957" cy="282.668" r="5" transform="rotate(175 28.8957 282.668)" fill="#EAE6E1"/>
<circle cx="18.797" cy="270.502" r="6" transform="rotate(175 18.797 270.502)" fill="#EAE6E1"/>
<circle cx="8.52373" cy="256.343" r="7" transform="rotate(175 8.52373 256.343)" fill="#EAE6E1"/>
<path d="M99.7036 76.775C101.089 72.6223 105.562 70.3451 109.767 71.6469C105.579 70.2362 103.283 65.7423 104.623 61.5502L104.623 61.5501C103.257 65.7342 98.7642 68.0344 94.5425 66.7267C98.7148 68.1315 101.01 72.5963 99.7028 76.7747L99.7036 76.775Z" fill="#EAE6E1"/>
<path d="M149.966 312.376C149.21 308.064 152.063 303.934 156.381 303.08C152.026 303.83 147.869 300.968 147.055 296.643L147.055 296.643C147.842 300.974 144.984 305.134 140.648 305.99C144.986 305.242 149.128 308.079 149.965 312.376L149.966 312.376Z" fill="#EAE6E1"/>
<path d="M153.233 11.9134C150.597 9.95575 150.02 6.23567 151.93 3.54312C149.946 6.19806 146.207 6.78436 143.533 4.84955L143.532 4.84966C146.195 6.80127 146.785 10.5404 144.866 13.2436C146.842 10.5984 150.56 10.0061 153.233 11.9139L153.233 11.9134Z" fill="#EAE6E1"/>
</svg>
