<svg width="139" height="139" viewBox="0 0 139 139" fill="none" xmlns="http://www.w3.org/2000/svg">
<rect x="94.1885" y="94.002" width="33.7648" height="33.9865" rx="16.8824" fill="#F0EDE9"/>
<path d="M111.071 116.678C110.321 116.678 109.656 116.541 109.078 116.267C108.499 115.993 108.045 115.615 107.716 115.133C107.386 114.651 107.221 114.101 107.221 113.482C107.221 112.98 107.328 112.521 107.541 112.105C107.754 111.684 108.04 111.339 108.4 111.07C108.766 110.796 109.177 110.628 109.633 110.568C109.05 110.456 108.57 110.169 108.195 109.708C107.82 109.246 107.632 108.683 107.632 108.019C107.632 107.435 107.782 106.915 108.081 106.459C108.38 105.997 108.789 105.634 109.306 105.37C109.823 105.107 110.412 104.975 111.071 104.975C111.726 104.975 112.312 105.107 112.829 105.37C113.346 105.634 113.752 105.997 114.047 106.459C114.346 106.915 114.495 107.435 114.495 108.019C114.495 108.678 114.308 109.241 113.932 109.708C113.557 110.169 113.083 110.456 112.509 110.568C112.961 110.634 113.369 110.804 113.735 111.077C114.1 111.346 114.389 111.691 114.602 112.112C114.815 112.528 114.922 112.985 114.922 113.482C114.922 114.101 114.757 114.651 114.427 115.133C114.097 115.615 113.643 115.993 113.065 116.267C112.487 116.541 111.822 116.678 111.071 116.678ZM111.071 115.46C111.827 115.46 112.431 115.275 112.882 114.905C113.339 114.535 113.567 114.04 113.567 113.421C113.567 112.995 113.461 112.617 113.248 112.287C113.034 111.958 112.74 111.699 112.365 111.511C111.989 111.323 111.558 111.23 111.071 111.23C110.584 111.23 110.151 111.323 109.77 111.511C109.395 111.699 109.098 111.958 108.88 112.287C108.667 112.617 108.56 112.995 108.56 113.421C108.56 114.035 108.789 114.53 109.245 114.905C109.702 115.275 110.31 115.46 111.071 115.46ZM111.071 110.058C111.695 110.058 112.2 109.88 112.586 109.525C112.976 109.165 113.171 108.693 113.171 108.11C113.171 107.532 112.979 107.065 112.593 106.71C112.208 106.355 111.7 106.177 111.071 106.177C110.442 106.177 109.932 106.355 109.542 106.71C109.151 107.065 108.956 107.532 108.956 108.11C108.956 108.688 109.151 109.157 109.542 109.518C109.932 109.878 110.442 110.058 111.071 110.058Z" fill="#4D4D4D"/>
<circle cx="111.07" cy="111.106" r="42.5307" stroke="#F0EDE9" stroke-width="0.649324"/>
<circle cx="111.07" cy="111.106" r="58.1145" stroke="#F0EDE9" stroke-width="0.649324"/>
<circle cx="111.071" cy="111.106" r="110.06" stroke="#F0EDE9" stroke-width="0.649324"/>
</svg>
