<svg width="139" height="138" viewBox="0 0 139 138" fill="none" xmlns="http://www.w3.org/2000/svg">
<rect x="94.1885" y="93.4351" width="33.7648" height="33.9865" rx="16.8824" fill="#F0EDE9"/>
<path d="M107.342 115.928V114.779L111.375 111.096C111.857 110.655 112.248 110.267 112.547 109.932C112.851 109.597 113.075 109.27 113.217 108.951C113.359 108.631 113.43 108.279 113.43 107.893C113.43 107.193 113.222 106.64 112.806 106.234C112.395 105.828 111.829 105.625 111.109 105.625C110.333 105.625 109.732 105.864 109.306 106.341C108.879 106.812 108.666 107.452 108.666 108.258H107.388C107.388 107.502 107.54 106.835 107.845 106.257C108.154 105.679 108.588 105.227 109.146 104.903C109.704 104.573 110.356 104.408 111.101 104.408C111.812 104.408 112.438 104.555 112.981 104.849C113.524 105.138 113.95 105.542 114.259 106.059C114.569 106.571 114.723 107.165 114.723 107.84C114.723 108.57 114.52 109.242 114.115 109.856C113.714 110.47 113.098 111.155 112.266 111.911L109.199 114.696V114.711H114.792V115.928H107.342Z" fill="#4D4D4D"/>
<circle cx="111.07" cy="110.539" r="42.5307" stroke="#F0EDE9" stroke-width="0.649324"/>
<circle cx="111.07" cy="110.539" r="58.1145" stroke="#F0EDE9" stroke-width="0.649324"/>
<circle cx="111.071" cy="110.539" r="110.06" stroke="#F0EDE9" stroke-width="0.649324"/>
</svg>
