<svg width="138" height="139" viewBox="0 0 138 139" fill="none" xmlns="http://www.w3.org/2000/svg">
<rect x="93.8467" y="94.2187" width="33.7648" height="33.9865" rx="16.8824" fill="#F0EDE9"/>
<path d="M110.805 116.895C109.552 116.895 108.581 116.428 107.891 115.494C107.206 114.556 106.864 113.232 106.864 111.522C106.864 110.249 107.008 109.138 107.297 108.19C107.592 107.241 108.043 106.505 108.652 105.983C109.261 105.455 110.039 105.191 110.988 105.191C111.972 105.191 112.776 105.468 113.4 106.021C114.029 106.574 114.397 107.302 114.503 108.205H113.164C113.058 107.657 112.824 107.221 112.464 106.896C112.109 106.571 111.645 106.409 111.072 106.409C110.417 106.409 109.874 106.597 109.443 106.972C109.017 107.347 108.697 107.865 108.484 108.524C108.276 109.179 108.172 109.93 108.172 110.777H108.188C108.446 110.34 108.832 109.99 109.344 109.727C109.862 109.463 110.425 109.331 111.034 109.331C111.718 109.331 112.327 109.496 112.86 109.826C113.397 110.15 113.821 110.597 114.13 111.165C114.44 111.728 114.595 112.37 114.595 113.09C114.595 113.836 114.432 114.495 114.108 115.068C113.788 115.642 113.344 116.09 112.776 116.415C112.208 116.735 111.551 116.895 110.805 116.895ZM110.805 115.677C111.262 115.677 111.675 115.563 112.046 115.335C112.421 115.101 112.718 114.789 112.936 114.399C113.159 114.003 113.271 113.567 113.271 113.09C113.271 112.613 113.164 112.184 112.951 111.804C112.738 111.418 112.449 111.114 112.084 110.891C111.718 110.663 111.307 110.548 110.851 110.548C110.394 110.548 109.976 110.663 109.595 110.891C109.22 111.119 108.918 111.429 108.69 111.819C108.467 112.205 108.355 112.633 108.355 113.105C108.355 113.577 108.464 114.008 108.682 114.399C108.905 114.789 109.202 115.101 109.573 115.335C109.943 115.563 110.354 115.677 110.805 115.677Z" fill="#4D4D4D"/>
<circle cx="110.728" cy="111.323" r="42.5307" stroke="#F0EDE9" stroke-width="0.649324"/>
<circle cx="110.728" cy="111.323" r="58.1145" stroke="#F0EDE9" stroke-width="0.649324"/>
<circle cx="110.729" cy="111.323" r="110.06" stroke="#F0EDE9" stroke-width="0.649324"/>
</svg>
