<svg width="138" height="139" viewBox="0 0 138 139" fill="none" xmlns="http://www.w3.org/2000/svg">
<rect x="93.8467" y="94.002" width="33.7648" height="33.9865" rx="16.8824" fill="#F0EDE9"/>
<path d="M110.44 116.678C109.456 116.678 108.644 116.401 108.005 115.848C107.371 115.295 107.001 114.567 106.894 113.665H108.233C108.34 114.212 108.576 114.649 108.941 114.973C109.306 115.298 109.775 115.46 110.349 115.46C111.003 115.46 111.543 115.273 111.969 114.897C112.401 114.522 112.723 114.004 112.936 113.345C113.149 112.685 113.255 111.935 113.255 111.093H113.24C112.981 111.529 112.598 111.869 112.091 112.112C111.589 112.356 111.034 112.477 110.425 112.477C109.745 112.477 109.136 112.318 108.599 111.998C108.061 111.673 107.637 111.23 107.328 110.666C107.018 110.103 106.864 109.464 106.864 108.749C106.864 108.003 107.023 107.346 107.343 106.778C107.668 106.21 108.114 105.769 108.682 105.454C109.255 105.135 109.912 104.975 110.653 104.975C111.911 104.975 112.883 105.441 113.567 106.375C114.252 107.308 114.595 108.632 114.595 110.347C114.595 111.615 114.445 112.726 114.146 113.68C113.851 114.628 113.397 115.366 112.784 115.894C112.17 116.417 111.389 116.678 110.44 116.678ZM110.607 111.26C111.069 111.26 111.488 111.148 111.863 110.925C112.238 110.702 112.538 110.4 112.761 110.02C112.989 109.634 113.103 109.206 113.103 108.734C113.103 108.257 112.992 107.828 112.768 107.448C112.55 107.062 112.256 106.758 111.886 106.535C111.515 106.306 111.105 106.192 110.653 106.192C110.196 106.192 109.781 106.306 109.405 106.535C109.035 106.758 108.738 107.062 108.515 107.448C108.297 107.833 108.188 108.267 108.188 108.749C108.188 109.226 108.294 109.654 108.507 110.035C108.72 110.41 109.009 110.71 109.375 110.933C109.745 111.151 110.156 111.26 110.607 111.26Z" fill="#4D4D4D"/>
<circle cx="110.728" cy="111.106" r="42.5307" stroke="#F0EDE9" stroke-width="0.649324"/>
<circle cx="110.728" cy="111.106" r="58.1145" stroke="#F0EDE9" stroke-width="0.649324"/>
<circle cx="110.729" cy="111.106" r="110.06" stroke="#F0EDE9" stroke-width="0.649324"/>
</svg>
