<svg width="139" height="139" viewBox="0 0 139 139" fill="none" xmlns="http://www.w3.org/2000/svg">
<rect x="94.1885" y="94.2186" width="33.7648" height="33.9865" rx="16.8824" fill="#F0EDE9"/>
<path d="M111.086 116.864C110.361 116.864 109.709 116.714 109.131 116.415C108.552 116.111 108.091 115.7 107.746 115.182C107.401 114.665 107.213 114.079 107.183 113.425H108.552C108.613 114.069 108.877 114.601 109.344 115.023C109.815 115.439 110.396 115.646 111.086 115.646C111.578 115.646 112.007 115.532 112.372 115.304C112.742 115.076 113.032 114.764 113.24 114.368C113.448 113.967 113.552 113.511 113.552 112.998C113.552 112.486 113.453 112.032 113.255 111.636C113.057 111.241 112.78 110.931 112.425 110.708C112.07 110.48 111.657 110.366 111.185 110.366C110.561 110.366 110.026 110.492 109.58 110.746C109.133 110.995 108.821 111.36 108.644 111.842H107.327L107.708 105.374H114.252V106.591H108.948L108.674 110.267H108.689C109.394 109.511 110.282 109.133 111.352 109.133C112.047 109.133 112.659 109.298 113.186 109.628C113.719 109.957 114.132 110.411 114.427 110.99C114.726 111.568 114.876 112.232 114.876 112.983C114.876 113.744 114.716 114.416 114.396 115C114.082 115.583 113.64 116.04 113.072 116.369C112.504 116.699 111.842 116.864 111.086 116.864Z" fill="#4D4D4D"/>
<circle cx="111.07" cy="111.323" r="42.5307" stroke="#F0EDE9" stroke-width="0.649324"/>
<circle cx="111.07" cy="111.323" r="58.1145" stroke="#F0EDE9" stroke-width="0.649324"/>
<circle cx="111.071" cy="111.322" r="110.06" stroke="#F0EDE9" stroke-width="0.649324"/>
</svg>
